<?xml version="1.0" encoding="utf-8"?>
<!-- Generator: Adobe Illustrator 24.3.0, SVG Export Plug-In . SVG Version: 6.00 Build 0)  -->
<svg version="1.1" id="Layer_1" xmlns="http://www.w3.org/2000/svg" xmlns:xlink="http://www.w3.org/1999/xlink" x="0px" y="0px"
	 viewBox="0 0 595.28 841.89" style="enable-background:new 0 0 595.28 841.89;" xml:space="preserve">
<style type="text/css">
	.st0{fill:#FFFFFF;}
	.st1{fill:#E9AF6D;}
	.st2{fill:#E3AA68;}
</style>
<g>
	<g>
		<path class="st0" d="M-662.36,960.94c0-360,0-720,0-1080c640,0,1280,0,1920,0c0,360,0,720,0,1080
			C617.64,960.94-22.36,960.94-662.36,960.94z M490.01,421.25c-0.1-105.99-86.09-191.74-192.14-191.6
			c-106.16,0.14-191.74,85.91-191.61,192.04c0.13,106.12,85.92,191.67,192.09,191.55C404.52,613.13,490.11,527.38,490.01,421.25z"/>
		<path class="st1" d="M490.01,421.25c0.1,106.13-85.5,191.88-191.65,191.99c-106.17,0.12-191.97-85.44-192.09-191.55
			c-0.13-106.13,85.45-191.9,191.61-192.04C403.92,229.51,489.91,315.26,490.01,421.25z M297.81,600.37
			c98.8,0.09,179.18-79.89,179.33-178.43c0.14-99.18-79.71-179.35-178.72-179.42c-98.96-0.07-179.11,79.68-179.27,178.37
			C118.98,520.08,198.82,600.28,297.81,600.37z"/>
		<path class="st0" d="M297.81,600.37c-98.99-0.09-178.83-80.29-178.67-179.47c0.16-98.69,80.32-178.45,179.27-178.37
			c99.01,0.07,178.87,80.25,178.72,179.42C476.99,520.48,396.61,600.46,297.81,600.37z M329.12,391.47c0-2.42,0-4.21,0-6.01
			c0-14.14,0.04-28.29-0.02-42.43c-0.03-7.51-3.91-11.43-11.39-11.48c-13.32-0.08-26.64-0.07-39.95-0.01
			c-7.75,0.04-11.57,3.93-11.59,11.79c-0.05,14.14,0.01,28.29-0.04,42.43c-0.01,1.77,0.5,3.64-0.78,5.71c-1.62,0-3.42,0-5.22,0
			c-14.82,0-29.63-0.05-44.45,0.02c-7.51,0.03-11.44,3.93-11.48,11.39c-0.07,13.31-0.07,26.62,0,39.94
			c0.04,7.78,3.9,11.56,11.79,11.58c14.82,0.05,29.63-0.01,44.45,0.04c1.77,0.01,3.64-0.5,5.71,0.78c0,1.62,0,3.42,0,5.21
			c0,15.14-0.05,30.29,0.02,45.43c0.03,7.53,3.91,11.43,11.39,11.47c13.32,0.07,26.64,0.06,39.95,0
			c7.77-0.04,11.57-3.91,11.59-11.78c0.05-15.14-0.01-30.29,0.04-45.43c0.01-1.77-0.49-3.64,0.78-5.72c1.62,0,3.42,0,5.21,0
			c14.32,0,28.63,0.03,42.95-0.01c8.22-0.02,11.96-3.73,11.99-11.88c0.05-12.81,0.03-25.63,0.01-38.44
			c-0.01-9.1-3.56-12.6-12.79-12.6C361.49,391.46,345.69,391.47,329.12,391.47z M323.19,325.39c0.34-0.79,0.58-1.09,0.58-1.39
			c0.05-21.28,0.06-42.56,0.16-63.85c0.02-3.12-1.83-3.29-4.17-3.57c-14.09-1.68-28.14-1.65-42.26-0.17
			c-4.07,0.43-5.25,1.71-5.21,5.73c0.19,19.45,0.07,38.91,0.11,58.37c0,1.59-0.55,3.34,0.92,4.88
			C289.83,325.39,306.44,325.39,323.19,325.39z M195.77,396.32c-0.83-0.27-1.29-0.56-1.75-0.56c-18.96-0.04-37.93-0.01-56.89-0.1
			c-2.82-0.01-3.61,1.18-3.93,3.82c-1.69,14.25-1.73,28.47-0.15,42.74c0.41,3.74,1.4,5.11,5.37,5.07c17.8-0.21,35.6-0.08,53.4-0.11
			c1.28,0,2.69,0.36,3.95-0.95C195.77,429.82,195.77,413.23,195.77,396.32z M400.57,447.19c20.06,0,39.51-0.03,58.96,0.03
			c2.68,0.01,3.24-1.37,3.52-3.69c1.74-14.41,1.75-28.8,0.14-43.23c-0.41-3.68-1.65-4.7-5.22-4.67c-17.96,0.16-35.93,0.07-53.9,0.08
			c-1.13,0-2.35-0.28-3.5,0.89C400.57,413.11,400.57,429.82,400.57,447.19z M272.38,523.84c0,20.06,0.04,39.5-0.04,58.94
			c-0.01,3.15,1.91,3.24,4.21,3.53c14.25,1.75,28.47,1.69,42.75,0.11c3.69-0.41,4.69-1.66,4.66-5.21
			c-0.15-17.79-0.06-35.58-0.09-53.37c0-1.28,0.39-2.68-0.87-3.99C306.47,523.84,289.75,523.84,272.38,523.84z M336.57,325.21
			c17.33,0,34.07,0,51.29,0c0-14.27-0.02-28.21,0.03-42.15c0.01-1.9-1.28-2.53-2.57-3.28c-6.9-4.04-13.9-7.9-21.28-10.98
			c-8.83-3.69-17.82-6.97-27.47-9.15C336.57,281.75,336.57,303.32,336.57,325.21z M259.56,325.39c0-22.15,0-43.79,0-65.83
			c-16.81,4.34-32.25,10.63-46.84,19.14c-3.11,1.81-4.48,3.73-4.4,7.43c0.24,11.47,0.06,22.95,0.11,34.42
			c0.01,1.58-0.57,3.34,0.95,4.85C225.9,325.39,242.51,325.39,259.56,325.39z M208.77,459.87c0,17.35,0,34.07,0,50.82
			c17.21,0,34.07,0,50.84,0c0-17.18,0-33.91,0-50.82C242.52,459.87,225.78,459.87,208.77,459.87z M336.66,459.86
			c0,17.34,0,34.07,0,50.83c17.21,0,34.06,0,50.85,0c0-17.17,0-33.9,0-50.83C370.43,459.86,353.7,459.86,336.66,459.86z
			 M136.24,459.9c4.37,17.65,11.16,33.59,20.12,48.65c1.31,2.21,3.09,2.63,5.42,2.61c9.81-0.08,19.62-0.18,29.42,0.04
			c3.7,0.08,4.91-1.07,4.85-4.81c-0.21-11.79-0.08-23.59-0.08-35.39c0-3.61,0-7.22,0-11.11C175.86,459.9,156.32,459.9,136.24,459.9z
			 M400.32,459.87c0,16.4,0.04,32.17-0.04,47.94c-0.02,3.2,1.85,3.35,4.22,3.33c8.48-0.05,16.98-0.45,25.42,0.13
			c6.33,0.44,9.83-1.73,12.8-7.35c7.37-13.98,13.45-28.37,17.31-44.05C440.01,459.87,420.47,459.87,400.32,459.87z M259.5,583.26
			c0-20.13,0-39.77,0-59.67c-16.25,0-32.03,0.03-47.81-0.03c-2.75-0.01-3.32,1.4-3.3,3.75c0.06,10.47,0.06,20.94-0.01,31.4
			c-0.01,2.11,0.87,3.39,2.59,4.42C226.01,572.14,241.99,578.88,259.5,583.26z M336.72,523.58c0,20.35,0,39.85,0,59.78
			c18.22-4.74,34.4-12.56,49.35-23.06c1.4-0.99,1.81-2.2,1.81-3.81c-0.04-9.81-0.09-19.63,0.02-29.44c0.03-3.09-1.59-3.51-4.1-3.49
			c-8.82,0.07-17.64,0.03-26.46,0.03C350.56,523.58,343.78,523.58,336.72,523.58z M195.54,383.01c0-15.19,0-29.73,0-44.6
			c-13.39,0-26.36,0.01-39.34-0.01c-1.44,0-2.49,0.41-3.24,1.79c-7.33,13.46-13.01,27.55-16.71,42.82
			C156.26,383.01,175.8,383.01,195.54,383.01z M460.03,382.96c-3.74-15.15-9.3-29.11-16.51-42.46c-1.11-2.06-2.7-2.11-4.57-2.11
			c-8.32,0.02-16.65-0.06-24.97,0.04c-4.41,0.05-8.88-0.5-13.31,0.4c0,14.91,0,29.45,0,44.13
			C420.55,382.96,440.08,382.96,460.03,382.96z M208.69,382.98c17.31,0,34.02,0,50.85,0c0-14.96,0-29.61,0-44.26
			c-17.15,0-33.86,0-50.85,0C208.69,353.56,208.69,368.09,208.69,382.98z M387.6,338.72c-17.32,0-34.03,0-50.85,0
			c0,14.97,0,29.62,0,44.25c17.15,0,33.87,0,50.85,0C387.6,368.12,387.6,353.59,387.6,338.72z M195.72,289.94
			c-12.96,10.94-23.77,22.35-33.57,35.2c11.65,0,22.55,0,33.57,0C195.72,313.5,195.72,302.27,195.72,289.94z M400.64,325.1
			c11.18,0,22.12,0,33.66,0c-10.32-12.85-20.84-24.47-33.66-35.01C400.64,302.27,400.64,313.61,400.64,325.1z M400.57,553.15
			c10.66-9.62,20.21-18.54,29-29.24c-10.31,0-19.53,0-29,0C400.57,533.45,400.57,542.65,400.57,553.15z M195.69,523.93
			c-9.77,0-18.96,0-29.14,0c9.25,10.6,18.39,19.96,29.14,28.9C195.69,542.68,195.69,533.48,195.69,523.93z"/>
		<path class="st2" d="M329.12,391.47c16.57,0,32.37-0.01,48.17,0c9.23,0.01,12.78,3.51,12.79,12.6
			c0.02,12.81,0.04,25.63-0.01,38.44c-0.03,8.15-3.77,11.86-11.99,11.88c-14.32,0.04-28.63,0.01-42.95,0.01c-1.8,0-3.59,0-5.21,0
			c-1.27,2.08-0.77,3.95-0.78,5.72c-0.05,15.14,0.01,30.29-0.04,45.43c-0.02,7.87-3.82,11.74-11.59,11.78
			c-13.32,0.06-26.64,0.07-39.95,0c-7.48-0.04-11.36-3.94-11.39-11.47c-0.07-15.14-0.02-30.28-0.02-45.43c0-1.8,0-3.59,0-5.21
			c-2.07-1.28-3.94-0.78-5.71-0.78c-14.82-0.05-29.63,0.01-44.45-0.04c-7.89-0.02-11.75-3.8-11.79-11.58
			c-0.06-13.31-0.07-26.62,0-39.94c0.04-7.46,3.97-11.36,11.48-11.39c14.82-0.07,29.63-0.02,44.45-0.02c1.8,0,3.6,0,5.22,0
			c1.28-2.07,0.77-3.94,0.78-5.71c0.05-14.14-0.01-28.29,0.04-42.43c0.03-7.86,3.84-11.75,11.59-11.79
			c13.32-0.06,26.64-0.07,39.95,0.01c7.48,0.04,11.36,3.97,11.39,11.48c0.06,14.14,0.02,28.29,0.02,42.43
			C329.12,387.26,329.12,389.05,329.12,391.47z"/>
		<path class="st1" d="M323.19,325.39c-16.75,0-33.36,0-49.86,0c-1.47-1.54-0.92-3.29-0.92-4.88c-0.04-19.46,0.08-38.91-0.11-58.37
			c-0.04-4.02,1.14-5.3,5.21-5.73c14.12-1.48,28.17-1.51,42.26,0.17c2.34,0.28,4.19,0.45,4.17,3.57
			c-0.11,21.28-0.11,42.56-0.16,63.85C323.77,324.3,323.53,324.6,323.19,325.39z M285.56,268.8c0,14.64,0,28.97,0,43.56
			c8.49,0,16.69,0,25.16,0c0-14.62,0-28.95,0-43.56C302.22,268.07,294.03,268.07,285.56,268.8z"/>
		<path class="st1" d="M195.77,396.32c0,16.91,0,33.5,0,49.92c-1.26,1.3-2.67,0.95-3.95,0.95c-17.8,0.02-35.6-0.1-53.4,0.11
			c-3.97,0.05-4.95-1.33-5.37-5.07c-1.58-14.27-1.54-28.49,0.15-42.74c0.31-2.64,1.11-3.83,3.93-3.82
			c18.96,0.09,37.93,0.06,56.89,0.1C194.48,395.76,194.94,396.04,195.77,396.32z M145.48,434.3c11.76,0,23.04-0.05,34.33,0.03
			c2.77,0.02,3.31-1.36,3.28-3.73c-0.08-5.99-0.2-11.98,0.04-17.96c0.14-3.47-1.36-4.19-4.44-4.13c-7.32,0.16-14.64-0.04-21.96,0.09
			c-3.75,0.06-7.58-0.64-11.45,0.58C144.82,417.44,144.57,425.53,145.48,434.3z"/>
		<path class="st1" d="M400.57,447.19c0-17.36,0-34.08,0-50.59c1.15-1.16,2.37-0.88,3.5-0.89c17.97-0.02,35.93,0.07,53.9-0.08
			c3.57-0.03,4.81,0.99,5.22,4.67c1.61,14.44,1.6,28.82-0.14,43.23c-0.28,2.32-0.84,3.7-3.52,3.69
			C440.08,447.16,420.63,447.19,400.57,447.19z M450.77,434.28c0.91-8.75,0.92-16.94-0.01-25.67c-11.8,0-23.4,0-34.99,0
			c-2.37,0-2.56,1.56-2.56,3.37c0.02,6.32,0.03,12.64,0,18.96c-0.01,1.83,0.23,3.35,2.58,3.35
			C427.39,434.28,438.99,434.28,450.77,434.28z"/>
		<path class="st1" d="M272.38,523.84c17.36,0,34.08,0,50.63,0c1.25,1.31,0.86,2.7,0.87,3.99c0.02,17.79-0.07,35.58,0.09,53.37
			c0.03,3.56-0.97,4.8-4.66,5.21c-14.27,1.59-28.5,1.65-42.75-0.11c-2.3-0.28-4.23-0.37-4.21-3.53
			C272.42,563.34,272.38,543.9,272.38,523.84z M311,574.08c0-11.85-0.03-23.29,0.02-34.73c0.01-2.65-1.55-2.91-3.58-2.89
			c-4.16,0.03-8.32,0.01-12.48,0.01c-9.7,0-9.7,0-9.7,9.72c0,9.25,0,18.51,0,27.84C294.04,574.93,302.13,574.86,311,574.08z"/>
		<path class="st1" d="M336.57,325.21c0-21.88,0-43.45,0-65.57c9.65,2.18,18.64,5.45,27.47,9.15c7.37,3.08,14.38,6.94,21.28,10.98
			c1.29,0.75,2.58,1.38,2.57,3.28c-0.05,13.94-0.03,27.88-0.03,42.15C370.64,325.21,353.9,325.21,336.57,325.21z M374.96,312.42
			c0-7.55-0.01-14.64,0.01-21.74c0-1.26-0.35-2.28-1.52-2.89c-7.6-3.93-15.11-8.08-23.86-10.44c0,11.91,0,23.38,0,35.07
			C358,312.42,366.08,312.42,374.96,312.42z"/>
		<path class="st1" d="M259.56,325.39c-17.05,0-33.66,0-50.17,0c-1.52-1.5-0.94-3.26-0.95-4.85c-0.05-11.47,0.12-22.95-0.11-34.42
			c-0.08-3.69,1.29-5.61,4.4-7.43c14.59-8.5,30.02-14.8,46.84-19.14C259.56,281.6,259.56,303.24,259.56,325.39z M221.33,312.35
			c8.77,0,16.96,0,25.3,0c0-11.75,0-23.19,0-35.03c-8.64,2.48-16.06,6.45-23.53,10.33c-1.12,0.58-1.78,1.4-1.78,2.73
			C221.34,297.62,221.33,304.87,221.33,312.35z"/>
		<path class="st1" d="M208.77,459.87c17.02,0,33.75,0,50.84,0c0,16.91,0,33.64,0,50.82c-16.77,0-33.63,0-50.84,0
			C208.77,493.94,208.77,477.22,208.77,459.87z M246.6,497.98c0-8.8,0-16.99,0-25.02c-8.63,0-16.82,0-24.86,0
			c0,8.62,0,16.81,0,25.02C230.24,497.98,238.32,497.98,246.6,497.98z"/>
		<path class="st1" d="M336.66,459.86c17.03,0,33.77,0,50.85,0c0,16.94,0,33.66,0,50.83c-16.8,0-33.65,0-50.85,0
			C336.66,493.93,336.66,477.2,336.66,459.86z M374.67,472.82c-8.47,0-16.66,0-25.14,0c0,8.47,0,16.65,0,25.13
			c8.47,0,16.66,0,25.14,0C374.67,489.48,374.67,481.29,374.67,472.82z"/>
		<path class="st1" d="M136.24,459.9c20.08,0,39.62,0,59.73,0c0,3.89,0,7.5,0,11.11c0,11.8-0.13,23.6,0.08,35.39
			c0.07,3.74-1.15,4.89-4.85,4.81c-9.8-0.22-19.61-0.12-29.42-0.04c-2.33,0.02-4.11-0.41-5.42-2.61
			C147.4,493.49,140.61,477.55,136.24,459.9z M153.97,472.83c2.44,8.9,6.61,16.56,10.71,24.25c0.52,0.97,1.54,1.15,2.58,1.15
			c5.09,0,10.18,0,15.5,0c0-8.77,0-16.95,0-25.4C173.13,472.83,163.8,472.83,153.97,472.83z"/>
		<path class="st1" d="M400.32,459.87c20.16,0,39.69,0,59.72,0c-3.86,15.68-9.94,30.07-17.31,44.05c-2.96,5.62-6.47,7.79-12.8,7.35
			c-8.44-0.58-16.95-0.17-25.42-0.13c-2.38,0.01-4.24-0.14-4.22-3.33C400.36,492.05,400.32,476.27,400.32,459.87z M413.57,472.72
			c0,8.71,0,16.89,0,25.5c5.29,0,10.23-0.01,15.17,0.01c1.22,0,2.4-0.17,3-1.34c3.96-7.73,8.29-15.31,10.54-24.18
			C432.48,472.72,423.24,472.72,413.57,472.72z"/>
		<path class="st1" d="M259.5,583.26c-17.51-4.38-33.49-11.12-48.53-20.13c-1.71-1.03-2.6-2.31-2.59-4.42
			c0.07-10.47,0.06-20.94,0.01-31.4c-0.01-2.36,0.55-3.76,3.3-3.75c15.78,0.06,31.56,0.03,47.81,0.03
			C259.5,543.49,259.5,563.13,259.5,583.26z M246.74,565.57c0-9.85,0-19.19,0-28.81c-8.47,0-16.66,0-25.42,0c0,5.36,0,10.45,0,15.54
			c0,1.05,0.2,2.04,1.19,2.56C230.2,558.96,237.87,563.12,246.74,565.57z"/>
		<path class="st1" d="M336.72,523.58c7.06,0,13.84,0,20.63,0c8.82,0,17.64,0.04,26.46-0.03c2.51-0.02,4.13,0.4,4.1,3.49
			c-0.11,9.81-0.06,19.63-0.02,29.44c0.01,1.61-0.41,2.82-1.81,3.81c-14.95,10.51-31.13,18.32-49.35,23.06
			C336.72,563.43,336.72,543.93,336.72,523.58z M374.94,536.92c-9.04,0-17.25,0-25.38,0c0,9.67,0,18.89,0,28.74
			c8.89-3.36,16.6-7.78,24.08-12.66c0.88-0.57,1.31-1.43,1.31-2.53C374.93,546.02,374.94,541.57,374.94,536.92z"/>
		<path class="st1" d="M195.54,383.01c-19.74,0-39.29,0-59.29,0c3.7-15.27,9.38-29.36,16.71-42.82c0.75-1.38,1.8-1.79,3.24-1.79
			c12.97,0.01,25.94,0.01,39.34,0.01C195.54,353.27,195.54,367.82,195.54,383.01z M182.78,351.31c-6.71,0-13.15-0.01-19.59,0.01
			c-0.87,0-1.61,0.33-2.03,1.18c-2.74,5.61-5.8,11.09-7.02,17.49c9.77,0,19.15,0,28.64,0C182.78,363.7,182.78,357.79,182.78,351.31z
			"/>
		<path class="st1" d="M460.03,382.96c-19.94,0-39.48,0-59.37,0c0-14.68,0-29.22,0-44.13c4.43-0.9,8.89-0.34,13.31-0.4
			c8.32-0.1,16.65-0.01,24.97-0.04c1.88-0.01,3.46,0.05,4.57,2.11C450.72,353.85,456.29,367.81,460.03,382.96z M442.45,370.14
			c-1.83-6.46-4.39-11.82-7.04-17.16c-0.59-1.2-1.45-1.7-2.75-1.7c-6.28,0.02-12.57,0.01-19.09,0.01c0,6.57,0,12.6,0,18.85
			C423.19,370.14,432.46,370.14,442.45,370.14z"/>
		<path class="st1" d="M208.69,382.98c0-14.88,0-29.42,0-44.26c16.99,0,33.7,0,50.85,0c0,14.65,0,29.3,0,44.26
			C242.71,382.98,225.99,382.98,208.69,382.98z M221.32,351.56c0,5.54,0.03,10.67-0.02,15.79c-0.02,2.09,0.84,3.03,2.97,3.01
			c6.66-0.05,13.32-0.03,19.98-0.01c1.84,0,2.76-0.82,2.76-2.69c-0.02-5.28-0.01-10.55-0.01-16.1
			C238.33,351.56,230.23,351.56,221.32,351.56z"/>
		<path class="st1" d="M387.6,338.72c0,14.87,0,29.4,0,44.25c-16.98,0-33.7,0-50.85,0c0-14.62,0-29.28,0-44.25
			C353.56,338.72,370.27,338.72,387.6,338.72z M349.27,351.6c0,5.59,0.01,10.88,0,16.16c-0.01,2.35,1.52,2.61,3.35,2.6
			c6.33-0.02,12.66-0.02,18.98,0c1.85,0.01,3.34-0.28,3.34-2.62c-0.02-5.28-0.01-10.57-0.01-16.15
			C366.2,351.6,357.99,351.6,349.27,351.6z"/>
		<path class="st1" d="M195.72,289.94c0,12.33,0,23.56,0,35.2c-11.02,0-21.92,0-33.57,0C171.95,312.29,182.76,300.88,195.72,289.94z
			"/>
		<path class="st1" d="M400.64,325.1c0-11.49,0-22.83,0-35.01c12.83,10.54,23.35,22.15,33.66,35.01
			C422.76,325.1,411.82,325.1,400.64,325.1z"/>
		<path class="st1" d="M400.57,553.15c0-10.5,0-19.7,0-29.24c9.47,0,18.69,0,29,0C420.78,534.61,411.23,543.53,400.57,553.15z"/>
		<path class="st1" d="M195.69,523.93c0,9.55,0,18.75,0,28.9c-10.76-8.94-19.9-18.29-29.14-28.9
			C176.73,523.93,185.93,523.93,195.69,523.93z"/>
		<path class="st0" d="M285.56,268.8c8.47-0.73,16.67-0.73,25.16,0c0,14.61,0,28.94,0,43.56c-8.47,0-16.67,0-25.16,0
			C285.56,297.77,285.56,283.43,285.56,268.8z"/>
		<path class="st0" d="M145.48,434.3c-0.91-8.77-0.65-16.86-0.2-25.11c3.87-1.22,7.7-0.52,11.45-0.58
			c7.32-0.12,14.64,0.07,21.96-0.09c3.08-0.07,4.58,0.66,4.44,4.13c-0.24,5.98-0.12,11.97-0.04,17.96c0.03,2.36-0.5,3.75-3.28,3.73
			C168.52,434.25,157.23,434.3,145.48,434.3z"/>
		<path class="st0" d="M450.77,434.28c-11.79,0-23.38-0.01-34.98,0c-2.35,0-2.59-1.52-2.58-3.35c0.03-6.32,0.02-12.64,0-18.96
			c-0.01-1.82,0.19-3.37,2.56-3.37c11.6,0.01,23.2,0,34.99,0C451.69,417.34,451.68,425.53,450.77,434.28z"/>
		<path class="st0" d="M311,574.08c-8.87,0.77-16.96,0.84-25.73-0.05c0-9.34,0-18.59,0-27.84c0-9.72,0-9.72,9.7-9.72
			c4.16,0,8.32,0.03,12.48-0.01c2.03-0.02,3.59,0.24,3.58,2.89C310.97,550.8,311,562.24,311,574.08z"/>
		<path class="st0" d="M374.96,312.42c-8.88,0-16.96,0-25.37,0c0-11.69,0-23.16,0-35.07c8.74,2.37,16.26,6.51,23.86,10.44
			c1.17,0.61,1.53,1.62,1.52,2.89C374.95,297.78,374.96,304.87,374.96,312.42z"/>
		<path class="st0" d="M221.33,312.35c0-7.48,0.01-14.72-0.01-21.97c0-1.33,0.66-2.14,1.78-2.73c7.46-3.88,14.89-7.86,23.53-10.33
			c0,11.84,0,23.28,0,35.03C238.29,312.35,230.1,312.35,221.33,312.35z"/>
		<path class="st0" d="M246.6,497.98c-8.28,0-16.36,0-24.86,0c0-8.21,0-16.4,0-25.02c8.04,0,16.23,0,24.86,0
			C246.6,481,246.6,489.19,246.6,497.98z"/>
		<path class="st0" d="M374.67,472.82c0,8.47,0,16.66,0,25.13c-8.48,0-16.67,0-25.14,0c0-8.47,0-16.66,0-25.13
			C358.01,472.82,366.2,472.82,374.67,472.82z"/>
		<path class="st0" d="M153.97,472.83c9.83,0,19.16,0,28.8,0c0,8.44,0,16.63,0,25.4c-5.32,0-10.41,0-15.5,0
			c-1.04,0-2.07-0.18-2.58-1.15C160.58,489.38,156.41,481.73,153.97,472.83z"/>
		<path class="st0" d="M413.57,472.72c9.67,0,18.91,0,28.72,0c-2.25,8.87-6.59,16.45-10.54,24.18c-0.6,1.17-1.78,1.34-3,1.34
			c-4.94-0.02-9.89-0.01-15.17-0.01C413.57,489.62,413.57,481.43,413.57,472.72z"/>
		<path class="st0" d="M246.74,565.57c-8.87-2.45-16.54-6.62-24.24-10.71c-0.98-0.52-1.19-1.51-1.19-2.56c0.01-5.09,0-10.18,0-15.54
			c8.76,0,16.94,0,25.42,0C246.74,546.39,246.74,555.72,246.74,565.57z"/>
		<path class="st0" d="M374.94,536.92c0,4.65-0.01,9.1,0.01,13.55c0.01,1.1-0.43,1.96-1.31,2.53c-7.48,4.87-15.19,9.29-24.08,12.66
			c0-9.85,0-19.07,0-28.74C357.69,536.92,365.9,536.92,374.94,536.92z"/>
		<path class="st0" d="M182.78,351.31c0,6.48,0,12.39,0,18.68c-9.49,0-18.87,0-28.64,0c1.21-6.4,4.27-11.88,7.02-17.49
			c0.41-0.85,1.16-1.18,2.03-1.18C169.62,351.3,176.06,351.31,182.78,351.31z"/>
		<path class="st0" d="M442.45,370.14c-9.99,0-19.26,0-28.88,0c0-6.25,0-12.28,0-18.85c6.53,0,12.81,0.01,19.09-0.01
			c1.3,0,2.15,0.5,2.75,1.7C438.06,358.31,440.62,363.67,442.45,370.14z"/>
		<path class="st0" d="M221.32,351.56c8.9,0,17,0,25.69,0c0,5.54-0.01,10.82,0.01,16.1c0.01,1.88-0.92,2.7-2.76,2.69
			c-6.66-0.02-13.32-0.03-19.98,0.01c-2.13,0.02-2.99-0.93-2.97-3.01C221.36,362.22,221.32,357.1,221.32,351.56z"/>
		<path class="st0" d="M349.27,351.6c8.72,0,16.93,0,25.66,0c0,5.58-0.01,10.86,0.01,16.15c0.01,2.34-1.49,2.62-3.34,2.62
			c-6.33-0.03-12.66-0.02-18.98,0c-1.83,0.01-3.36-0.25-3.35-2.6C349.28,362.48,349.27,357.19,349.27,351.6z"/>
	</g>
</g>
</svg>
